<?xml version="1.0" encoding="utf-8"?>
<!-- Generator: Adobe Illustrator 27.7.0, SVG Export Plug-In . SVG Version: 6.00 Build 0)  -->
<svg version="1.1" id="Layer_1" xmlns="http://www.w3.org/2000/svg" xmlns:xlink="http://www.w3.org/1999/xlink" x="0px" y="0px"
	 viewBox="0 0 271.06 260.26" style="enable-background:new 0 0 271.06 260.26;" xml:space="preserve">
<style type="text/css">
	.st0{fill:#51BE99;}
</style>
<g>
	<g>
		<path class="st0" d="M163.44,31.65c0,14.76-27.67,100.56-27.67,100.56s-27.67-85.8-27.67-100.56S120.48,0,135.77,0
			S163.44,16.9,163.44,31.65z"/>
		<path class="st0" d="M39.69,80.85c14.03,4.56,87.09,57.39,87.09,57.39s-90.15-0.2-104.19-4.76s-26.27-21.56-21.55-36.1
			S25.65,76.29,39.69,80.85z"/>
		<path class="st0" d="M48.24,213.75c8.67-11.94,81.5-65.09,81.5-65.09s-28.05,85.68-36.72,97.62s-28.63,18.32-40.99,9.34
			C39.66,246.64,39.56,225.69,48.24,213.75z"/>
		<path class="st0" d="M177.28,246.69c-8.67-11.94-36.72-97.62-36.72-97.62s72.82,53.15,81.5,65.09
			c8.67,11.94,8.58,32.89-3.78,41.87C205.91,265.01,185.95,258.63,177.28,246.69z"/>
		<path class="st0" d="M248.47,134.14c-14.03,4.56-104.19,4.76-104.19,4.76s73.05-52.83,87.09-57.39c14.03-4.56,33.93,2,38.65,16.54
			S262.51,129.58,248.47,134.14z"/>
	</g>
	<circle class="st0" cx="189.46" cy="67.37" r="11.03"/>
	<circle class="st0" cx="81.92" cy="67.84" r="11.03"/>
	<circle class="st0" cx="61.16" cy="164.03" r="11.03"/>
	<circle class="st0" cx="135.08" cy="212.31" r="11.03"/>
	<circle class="st0" cx="209.77" cy="164.85" r="11.03"/>
</g>
</svg>
